<svg id="Layer_1" data-name="Layer 1" xmlns="http://www.w3.org/2000/svg" xmlns:xlink="http://www.w3.org/1999/xlink" viewBox="0 0 305.88 78.54"><defs><style>.cls-1{fill:none;}.cls-2{fill:#fff;}.cls-3{clip-path:url(#clip-path);}.cls-4{fill:url(#linear-gradient);}.cls-5{clip-path:url(#clip-path-2);}.cls-6{fill:url(#linear-gradient-2);}.cls-7{clip-path:url(#clip-path-3);}.cls-8{fill:url(#linear-gradient-3);}.cls-9{clip-path:url(#clip-path-4);}.cls-10{fill:url(#linear-gradient-4);}</style><clipPath id="clip-path" transform="translate(0 -0.29)"><path class="cls-1" d="M39.65,11.41A38.19,38.19,0,0,1,12.45.29a55.32,55.32,0,0,1,15,27.4A57,57,0,0,0,39.65,29a55,55,0,0,0,38.9-16.28L66.1,0.29A37.4,37.4,0,0,1,39.65,11.41"/></clipPath><linearGradient id="linear-gradient" x1="-242.46" y1="257.55" x2="-241.89" y2="257.55" gradientTransform="matrix(-116.06, 0, 0, 116.06, -28059.79, -29875.37)" gradientUnits="userSpaceOnUse"><stop offset="0" stop-color="#cb2026"/><stop offset="1" stop-color="#5e0a0b"/></linearGradient><clipPath id="clip-path-2" transform="translate(0 -0.29)"><path class="cls-1" d="M0,66.39H0ZM0,12.74A37.77,37.77,0,0,1,11.12,39.56,37.78,37.78,0,0,1,0,66.38a55.36,55.36,0,0,1,27.45-15,55.4,55.4,0,0,0,1.28-11.79A55.39,55.39,0,0,0,12.45.29Z"/></clipPath><linearGradient id="linear-gradient-2" x1="-241.69" y1="258.21" x2="-241.12" y2="258.21" gradientTransform="matrix(0, 116.06, 116.06, 0, -29952, 28049.56)" xlink:href="#linear-gradient"/><clipPath id="clip-path-3" transform="translate(0 -0.29)"><path class="cls-1" d="M51.1,27.78a55.41,55.41,0,0,0,15,51.06h0L78.55,66.39a37.91,37.91,0,0,1,0-53.64,55.36,55.36,0,0,1-27.45,15m27.45-15h0Z"/></clipPath><linearGradient id="linear-gradient-3" x1="-241.8" y1="256.78" x2="-241.23" y2="256.78" gradientTransform="matrix(0, -116.05, -116.05, 0, 29864.25, -27982.34)" xlink:href="#linear-gradient"/><clipPath id="clip-path-4" transform="translate(0 -0.29)"><path class="cls-1" d="M38.9,50.11A55,55,0,0,0,0,66.39L12.45,78.83h0A37.39,37.39,0,0,1,38.9,67.72,38.18,38.18,0,0,1,66.1,78.83a55.32,55.32,0,0,1-15-27.4,57,57,0,0,0-12.17-1.33h0"/></clipPath><linearGradient id="linear-gradient-4" x1="-241.03" y1="257.44" x2="-240.46" y2="257.44" gradientTransform="matrix(116.06, 0, 0, -116.06, 27972.92, 29941.76)" xlink:href="#linear-gradient"/></defs><title>logo</title><polygon class="cls-2" points="299.38 24.97 298.01 24.97 298.01 24.5 301.31 24.5 301.31 24.97 299.93 24.97 299.93 28.63 299.38 28.63 299.38 24.97"/><polygon class="cls-2" points="305.13 24.5 303.83 27.97 302.53 24.5 301.77 24.5 301.77 28.63 302.3 28.63 302.3 25.2 302.31 25.2 303.6 28.63 304.06 28.63 305.35 25.2 305.36 25.2 305.36 28.63 305.88 28.63 305.88 24.5 305.13 24.5"/><path class="cls-2" d="M101.77,30.91H97.25V25.36h10.19v5.13c1.93-3.86,4.83-5.49,9.11-5.67v6.7c-6.15,0-8.93,3.44-8.93,10.68v10.2h4.47V58h-15V52.38h4.71V30.91Z" transform="translate(0 -0.29)"/><path class="cls-2" d="M135.8,58.84a17.14,17.14,0,1,1,0-34.27A16.87,16.87,0,0,1,150,32.18a16.62,16.62,0,0,1,2.84,9.47c0,0.79-.06,1.57-0.12,2.36H124.94c1.33,5.61,5.73,9,10.86,9,3.8,0,7.06-1.87,9.41-5.43h6.7A17,17,0,0,1,135.8,58.84m10.56-20.33A10.83,10.83,0,0,0,135.8,30.3c-4.95,0-8.93,3-10.62,8.21h21.18Z" transform="translate(0 -0.29)"/><path class="cls-2" d="M172.18,58.72a16.41,16.41,0,0,1-11.82-4.89,17,17,0,0,1,0-24.25,16.42,16.42,0,0,1,11.82-4.89c4.77,0,8.33,1.45,11.16,4.71V18.85h-4.89V13.3h10.74V58H183.4V53.89a14.19,14.19,0,0,1-11.22,4.83M172.42,53c6.45,0,11-4.77,11-11.34s-4.59-11.4-11-11.4a11.16,11.16,0,0,0-11,11.4,11.1,11.1,0,0,0,11,11.34" transform="translate(0 -0.29)"/><path class="cls-2" d="M200.29,47.44v0.12a5.46,5.46,0,0,0,5.55,5.79c3.38,0,5.43-1.69,5.43-4.34,0-2.9-1.57-3.92-5.19-4.95s-6.27-1.69-7.6-2.53a8.18,8.18,0,0,1-4.16-7.42c0-5.49,4-9.47,9.77-9.47a8.77,8.77,0,0,1,6.34,2.53V25.35h5V33.8h-5.67a4.59,4.59,0,0,0-4.94-4.16c-2.84,0-4.65,1.81-4.65,4,0,3.55,3.32,3.55,8.87,5.36,5.73,1.87,8.26,4.41,8.26,9.66,0,5.85-4.28,10.08-10.56,10.08a9.38,9.38,0,0,1-7.24-2.83V58h-5.44V47.44h6.22Z" transform="translate(0 -0.29)"/><polygon class="cls-2" points="225.03 30.62 219.9 30.62 219.9 25.07 225.03 25.07 225.03 17.21 230.88 17.21 230.88 25.07 235.65 25.07 235.65 30.62 230.88 30.62 230.88 52.09 235.65 52.09 235.65 57.71 225.03 57.71 225.03 30.62"/><path class="cls-2" d="M243.55,29.58a17,17,0,1,1-5.07,12.13,17,17,0,0,1,5.07-12.13M255.67,53a11.1,11.1,0,0,0,11-11.34,11,11,0,1,0-22,0,11.11,11.11,0,0,0,11,11.34" transform="translate(0 -0.29)"/><path class="cls-2" d="M280.29,30.91h-4.52V25.36H286v5.13c1.93-3.86,4.83-5.49,9.11-5.67v6.7c-6.15,0-8.93,3.44-8.93,10.68v10.2h4.47V58h-15V52.38h4.71V30.91Z" transform="translate(0 -0.29)"/><g class="cls-3"><rect class="cls-4" x="12.45" width="66.1" height="28.73"/></g><g class="cls-5"><rect class="cls-6" width="28.74" height="66.1"/></g><g class="cls-7"><rect class="cls-8" x="49.81" y="12.45" width="28.74" height="66.1"/></g><g class="cls-9"><rect class="cls-10" y="49.81" width="66.1" height="28.73"/></g></svg>