<?xml version="1.0" encoding="utf-8"?>
<!-- Generator: Adobe Illustrator 21.1.0, SVG Export Plug-In . SVG Version: 6.00 Build 0)  -->
<svg version="1.1" id="Layer_1" xmlns="http://www.w3.org/2000/svg" xmlns:xlink="http://www.w3.org/1999/xlink" x="0px" y="0px"
	 viewBox="0 0 411.2 105.6" style="enable-background:new 0 0 411.2 105.6;" xml:space="preserve">
<style type="text/css">
	.st0{clip-path:url(#SVGID_2_);fill:url(#SVGID_3_);}
	.st1{clip-path:url(#SVGID_5_);fill:url(#SVGID_6_);}
	.st2{clip-path:url(#SVGID_8_);fill:url(#SVGID_9_);}
	.st3{clip-path:url(#SVGID_11_);fill:url(#SVGID_12_);}
</style>
<polygon points="400.9,33.6 399.1,33.6 399.1,33 403.5,33 403.5,33.6 401.7,33.6 401.7,38.5 400.9,38.5 "/>
<polygon points="408.6,33 406.9,37.7 405.1,33 404.1,33 404.1,38.5 404.8,38.5 404.8,34 404.8,34 406.6,38.5 407.2,38.5 408.9,34 
	408.9,34 408.9,38.5 409.6,38.5 409.6,33 "/>
<path d="M136.6,41.2h-6.1v-7.4h13.6v6.9c2.6-5.2,6.5-7.3,12.2-7.6v9c-8.2,0-11.9,4.6-11.9,14.3v13.6h6v7.5h-20.1v-7.5h6.3V41.2z"/>
<path d="M182.1,78.6c-6.1,0-11.9-2.3-16.2-6.7c-4.4-4.4-6.8-10.1-6.8-16.2c0-6.1,2.4-11.9,6.8-16.2c4.4-4.4,10.1-6.7,16.2-6.7
	c7.8,0,14.8,3.7,19,10.2c2.6,3.9,3.8,8.1,3.8,12.7c0,1.1-0.1,2.1-0.2,3.2h-37.2c1.8,7.5,7.7,12.1,14.5,12.1c5.1,0,9.4-2.5,12.6-7.3
	h9C199.9,73,191.7,78.6,182.1,78.6 M196.2,51.4c-2-6.9-7.5-11-14.1-11c-6.6,0-11.9,4-14.2,11H196.2z"/>
<path d="M230.7,78.4c-6.1,0-11.5-2.3-15.8-6.5c-4.4-4.4-6.8-10-6.8-16.2c0-6.2,2.4-11.9,6.8-16.2c4.4-4.3,9.7-6.5,15.8-6.5
	c6.4,0,11.1,1.9,14.9,6.3V25.1h-6.5v-7.4h14.4l0,59.8h-7.7V72C241.9,76.3,237,78.4,230.7,78.4 M231.1,70.8c8.6,0,14.8-6.4,14.8-15.2
	c0-8.8-6.1-15.3-14.8-15.3c-8.1,0-14.7,6.7-14.7,15.3C216.4,64.2,223,70.8,231.1,70.8"/>
<path d="M268.4,63.3v0.2c0,4.6,3.1,7.8,7.4,7.8c4.5,0,7.3-2.3,7.3-5.8c0-3.9-2.1-5.2-6.9-6.6c-4.9-1.4-8.4-2.3-10.2-3.4
	c-3.8-2.4-5.6-5.6-5.6-9.9c0-7.3,5.4-12.7,13.1-12.7c3.3,0,6.1,1.1,8.5,3.4v-2.4h6.7v11.3H281c-0.5-3.5-2.9-5.6-6.6-5.6
	c-3.8,0-6.2,2.4-6.2,5.3c0,4.8,4.4,4.8,11.9,7.2c7.7,2.5,11.1,5.9,11.1,12.9c0,7.8-5.7,13.5-14.1,13.5c-4,0-7.1-1.1-9.7-3.8v2.8H260
	V63.3H268.4z"/>
<polygon points="301.5,41.2 294.6,41.2 294.6,33.8 301.5,33.8 301.5,23.3 309.3,23.3 309.3,33.8 315.7,33.8 315.7,41.2 309.3,41.2 
	309.3,69.9 315.7,69.9 315.7,77.4 301.5,77.4 "/>
<path d="M326.2,39.4c4.4-4.4,10.1-6.7,16.2-6.7c6.1,0,11.9,2.3,16.2,6.7c4.4,4.4,6.7,10,6.7,16.2c0,6.2-2.3,11.9-6.7,16.2
	c-4.4,4.4-10.1,6.7-16.2,6.7c-6.1,0-11.9-2.3-16.2-6.7c-4.4-4.4-6.8-10.1-6.8-16.2C319.4,49.5,321.9,43.8,326.2,39.4 M342.5,70.8
	c8.1,0,14.7-6.6,14.7-15.2c0-8.6-6.6-15.3-14.7-15.3c-8.2,0-14.8,6.7-14.8,15.3C327.7,64.2,334.3,70.8,342.5,70.8"/>
<path d="M375.4,41.2h-6.1v-7.4H383v6.9c2.6-5.2,6.5-7.3,12.2-7.6v9c-8.2,0-11.9,4.6-11.9,14.3v13.6h6v7.5h-20.1v-7.5h6.3V41.2z"/>
<g>
	<defs>
		<path id="SVGID_1_" d="M53.4,15.1c-13.3,0-26.4-4.9-36.4-14.9c10.4,10.4,17.1,23.2,20,36.7c5.4,1.2,10.9,1.8,16.3,1.8
			c18.9,0,37.7-7.5,52-21.8L88.8,0.2C78.9,10.1,66.2,15.1,53.4,15.1"/>
	</defs>
	<clipPath id="SVGID_2_">
		<use xlink:href="#SVGID_1_"  style="overflow:visible;"/>
	</clipPath>
	
		<linearGradient id="SVGID_3_" gradientUnits="userSpaceOnUse" x1="-179.5906" y1="535.8376" x2="-178.8287" y2="535.8376" gradientTransform="matrix(-116.055 -1.010000e-05 -1.010000e-05 116.055 -20736.8926 -62167.1836)">
		<stop  offset="0" style="stop-color:#CC2026"/>
		<stop  offset="1" style="stop-color:#5E0B0C"/>
	</linearGradient>
	<rect x="17.1" y="0.2" class="st0" width="88.4" height="38.4"/>
</g>
<g>
	<defs>
		<path id="SVGID_4_" d="M0.4,88.7L0.4,88.7L0.4,88.7L0.4,88.7z M0.4,16.9c9.9,10,14.9,22.9,14.9,35.9c0,13-4.9,25.9-14.9,35.9
			c10.4-10.4,23.2-17.2,36.7-20.1c1.1-5.2,1.7-10.5,1.7-15.8c0-19-7.3-38.1-21.8-52.5L0.4,16.9z"/>
	</defs>
	<clipPath id="SVGID_5_">
		<use xlink:href="#SVGID_4_"  style="overflow:visible;"/>
	</clipPath>
	
		<linearGradient id="SVGID_6_" gradientUnits="userSpaceOnUse" x1="-181.5513" y1="538.3812" x2="-180.7894" y2="538.3812" gradientTransform="matrix(-5.100000e-06 116.055 116.055 5.100000e-06 -62462.2188 21070.1758)">
		<stop  offset="0" style="stop-color:#CC2026"/>
		<stop  offset="1" style="stop-color:#5E0B0C"/>
	</linearGradient>
	<rect x="0.4" y="0.2" class="st1" width="38.5" height="88.4"/>
</g>
<g>
	<defs>
		<path id="SVGID_7_" d="M68.8,37c-1.1,5.2-1.7,10.5-1.7,15.8c0,19,7.3,38.1,21.8,52.5h0l16.7-16.7c-9.9-10-14.9-22.9-14.9-35.9
			c0-13,4.9-25.9,14.9-35.9C95.1,27.3,82.3,34.1,68.8,37 M105.5,16.9L105.5,16.9L105.5,16.9L105.5,16.9z"/>
	</defs>
	<clipPath id="SVGID_8_">
		<use xlink:href="#SVGID_7_"  style="overflow:visible;"/>
	</clipPath>
	
		<linearGradient id="SVGID_9_" gradientUnits="userSpaceOnUse" x1="-177.0469" y1="537.7983" x2="-176.2849" y2="537.7983" gradientTransform="matrix(-5.100000e-06 -116.0516 -116.0516 5.100000e-06 62498.6289 -20441.2637)">
		<stop  offset="0" style="stop-color:#CC2026"/>
		<stop  offset="1" style="stop-color:#5E0B0C"/>
	</linearGradient>
	<rect x="67" y="16.9" class="st2" width="38.5" height="88.4"/>
</g>
<g>
	<defs>
		<path id="SVGID_10_" d="M52.4,66.9c-18.9,0-37.7,7.5-52,21.8l16.7,16.7h0c9.9-9.9,22.6-14.9,35.4-14.9c13.3,0,26.4,4.9,36.4,14.9
			c-10.4-10.4-17.1-23.2-20-36.7C63.4,67.5,58,66.9,52.4,66.9C52.5,66.9,52.5,66.9,52.4,66.9"/>
	</defs>
	<clipPath id="SVGID_11_">
		<use xlink:href="#SVGID_10_"  style="overflow:visible;"/>
	</clipPath>
	
		<linearGradient id="SVGID_12_" gradientUnits="userSpaceOnUse" x1="-179.0076" y1="540.3419" x2="-178.2457" y2="540.3419" gradientTransform="matrix(116.055 0 0 -116.055 20775.1387 62795.4922)">
		<stop  offset="0" style="stop-color:#CC2026"/>
		<stop  offset="1" style="stop-color:#5E0B0C"/>
	</linearGradient>
	<rect x="0.4" y="66.9" class="st3" width="88.4" height="38.4"/>
</g>
</svg>
